<?xml version="1.0" standalone="no"?>
<!DOCTYPE svg PUBLIC "-//W3C//DTD SVG 20010904//EN"
 "http://www.w3.org/TR/2001/REC-SVG-20010904/DTD/svg10.dtd">
<svg version="1.0" xmlns="http://www.w3.org/2000/svg"
 width="263.000000pt" height="263.000000pt" viewBox="0 0 263.000000 263.000000"
 preserveAspectRatio="xMidYMid meet">
<metadata>
Created by potrace 1.11, written by Peter Selinger 2001-2013
</metadata>
<g transform="translate(0.000000,263.000000) scale(0.100000,-0.100000)"
fill="#000000" stroke="none">
<path d="M1140 2220 c0 -5 14 -10 30 -10 33 0 38 -11 16 -29 -17 -14 -49 -1
-65 26 -14 25 -41 -1 -41 -40 0 -24 3 -28 12 -19 14 14 68 16 68 2 0 -5 -4
-10 -10 -10 -5 0 -9 -3 -8 -7 1 -5 -2 -25 -6 -45 -6 -29 -20 -45 -63 -78 l-55
-41 -31 21 c-64 40 -80 59 -73 84 4 16 -1 32 -13 47 -17 21 -25 22 -112 20
-52 -1 -98 -6 -102 -10 -18 -18 44 -51 95 -51 43 0 54 -5 91 -39 54 -51 41
-65 -17 -17 -38 31 -52 36 -95 36 -28 0 -51 -2 -51 -5 0 -5 24 -34 70 -84 40
-44 158 -121 185 -121 7 0 16 -7 19 -16 3 -8 11 -12 16 -9 6 4 17 1 25 -5 12
-10 15 -10 15 0 0 10 3 10 15 0 11 -9 15 -34 16 -84 1 -39 4 -100 8 -136 7
-61 8 -63 19 -37 14 33 35 35 50 5 8 -18 10 -10 5 39 -6 60 -5 62 19 68 14 4
42 5 64 3 l39 -3 5 -60 c3 -41 7 -53 12 -37 8 27 38 29 45 2 3 -11 9 -20 14
-20 4 0 5 76 2 169 l-6 169 64 68 c35 38 82 88 103 112 32 34 46 42 75 42 42
0 101 33 101 55 0 14 -13 15 -92 9 -110 -8 -131 -20 -126 -74 3 -31 -3 -40
-43 -77 -25 -24 -51 -43 -56 -43 -10 0 -69 63 -83 90 -5 10 -13 43 -16 74 -5
40 -12 60 -25 66 -23 13 -109 13 -109 0z m-116 -311 c31 -34 35 -43 25 -56
-11 -13 -14 -13 -20 4 -4 10 -19 29 -33 42 -25 24 -35 51 -17 51 5 0 25 -18
45 -41z"/>
<path d="M2091 2209 c-125 -8 -136 -10 -160 -33 -14 -14 -23 -28 -20 -30 10
-11 309 24 338 39 38 19 40 35 4 34 -16 -1 -88 -6 -162 -10z"/>
<path d="M1035 2191 c-3 -5 -1 -12 5 -16 5 -3 10 1 10 9 0 18 -6 21 -15 7z"/>
<path d="M1775 2192 c-41 -3 -54 -9 -75 -34 l-24 -31 98 6 c83 5 102 9 122 28
13 12 24 26 24 31 0 8 -48 8 -145 0z"/>
<path d="M2015 2131 c-134 -6 -155 -11 -155 -38 0 -13 11 -14 68 -9 37 3 115
8 175 12 84 5 112 10 130 25 25 21 38 21 -218 10z"/>
<path d="M465 2121 c-3 -5 7 -19 21 -30 23 -18 41 -21 120 -21 52 0 94 4 94 8
0 5 -10 18 -23 30 -20 19 -35 22 -115 22 -50 0 -93 -4 -97 -9z"/>
<path d="M178 2113 c-80 -4 -95 -13 -55 -35 22 -13 334 -15 346 -2 3 3 -5 14
-19 24 -26 20 -61 22 -272 13z"/>
<path d="M1758 2113 c-48 -4 -63 -17 -30 -27 54 -15 84 -17 97 -6 21 17 19 40
-2 38 -10 -1 -39 -3 -65 -5z"/>
<path d="M1554 2073 c-96 -90 -166 -174 -174 -208 -6 -28 -6 -35 3 -26 6 6 19
11 29 11 10 0 18 5 18 10 0 6 9 10 19 10 10 0 21 7 25 15 3 8 12 15 21 15 8 0
15 7 15 15 0 8 7 15 15 15 8 0 15 4 15 9 0 5 16 19 35 31 19 12 35 28 35 36 0
8 5 14 10 14 6 0 10 6 10 14 0 7 11 25 25 40 l24 26 -48 0 c-38 0 -53 -5 -77
-27z"/>
<path d="M2050 2068 c-69 -5 -142 -7 -163 -6 -30 3 -38 0 -44 -17 -3 -11 -5
-22 -4 -24 2 -6 156 -2 220 5 35 4 52 3 48 -3 -4 -6 -50 -13 -104 -17 -166
-12 -193 -18 -193 -40 0 -14 8 -14 178 -1 28 2 52 0 52 -5 0 -11 -37 -23 -48
-16 -16 10 -196 -14 -204 -27 -15 -23 -8 -26 67 -21 43 3 75 1 75 -4 0 -10
-70 -22 -130 -22 -25 0 -43 -7 -58 -23 -12 -13 -22 -26 -22 -29 0 -3 30 -3 67
0 60 4 66 3 60 -12 -6 -15 -3 -14 19 3 15 12 34 21 43 21 28 1 101 39 101 53
0 8 21 22 46 32 27 10 50 27 56 40 6 13 22 29 37 36 l26 12 -30 6 c-33 7 -28
13 27 30 42 14 60 42 25 40 -12 -1 -78 -6 -147 -11z m37 -114 c-3 -3 -12 -4
-19 -1 -8 3 -5 6 6 6 11 1 17 -2 13 -5z"/>
<path d="M1680 2062 c0 -16 33 -31 83 -38 34 -5 45 -3 50 9 4 11 -5 16 -41 20
-26 3 -57 9 -69 12 -14 5 -23 3 -23 -3z"/>
<path d="M593 2053 c-54 -4 -62 -10 -41 -31 16 -16 51 -15 94 3 32 13 40 38
11 33 -7 -1 -36 -3 -64 -5z"/>
<path d="M243 2042 c-57 -1 -103 -7 -103 -12 0 -21 44 -30 140 -30 65 0 99 -4
95 -10 -3 -5 -42 -10 -85 -10 -93 0 -116 -6 -99 -26 9 -11 43 -14 138 -15 135
0 145 -16 11 -19 -41 -1 -84 -5 -95 -10 -42 -17 35 -32 150 -28 67 2 112 -1
115 -7 3 -6 -35 -11 -102 -13 -60 -1 -108 -6 -108 -11 0 -16 86 -32 160 -29
100 4 109 -15 10 -22 l-75 -6 39 -18 c33 -15 60 -17 172 -14 l133 3 33 32 c41
40 74 93 58 93 -7 0 -21 -11 -32 -25 -11 -14 -40 -39 -64 -56 -42 -29 -47 -30
-63 -15 -10 9 -32 16 -49 16 -17 0 -34 5 -37 10 -4 6 5 10 19 10 14 0 26 4 26
8 0 18 -26 32 -62 32 -21 0 -38 5 -38 10 0 6 16 10 35 10 33 0 35 2 25 20 -9
17 -22 20 -73 21 -46 1 -56 3 -37 9 14 4 40 8 58 9 30 1 32 3 22 21 -9 17 -21
20 -80 20 -40 0 -70 4 -70 10 0 6 27 10 61 10 52 0 60 2 57 18 -4 18 -50 21
-285 14z"/>
<path d="M1000 2031 c0 -6 5 -13 10 -16 6 -3 10 1 10 9 0 9 -4 16 -10 16 -5 0
-10 -4 -10 -9z"/>
<path d="M1660 2019 c0 -12 73 -46 109 -51 49 -6 29 18 -31 40 -72 25 -78 26
-78 11z"/>
<path d="M655 2005 c-16 -8 -40 -14 -52 -15 -14 0 -23 -6 -23 -16 0 -14 7 -16
40 -11 43 5 90 31 90 47 0 13 -18 11 -55 -5z"/>
<path d="M1630 1991 c0 -14 46 -49 84 -65 33 -14 42 -14 53 -3 11 11 0 18 -62
44 -41 17 -75 27 -75 24z"/>
<path d="M675 1960 c-22 -10 -48 -19 -57 -19 -10 -1 -18 -8 -18 -16 0 -23 45
-18 89 10 70 44 61 60 -14 25z"/>
<path d="M730 1934 c-19 -14 -50 -30 -68 -36 -42 -16 -40 -44 3 -40 17 2 32 8
33 13 2 5 9 9 15 10 15 0 60 56 55 68 -2 5 -19 -2 -38 -15z"/>
<path d="M1600 1952 c0 -15 64 -71 94 -82 22 -8 32 -8 40 1 8 8 8 13 0 16 -7
2 -37 19 -69 38 -62 38 -65 39 -65 27z"/>
<path d="M1570 1920 c0 -19 89 -100 109 -100 36 0 31 18 -12 43 -23 14 -51 34
-61 46 -21 23 -36 27 -36 11z"/>
<path d="M770 1906 c-6 -8 -34 -29 -61 -47 -34 -21 -47 -35 -40 -42 15 -15 66
10 101 50 30 34 38 53 21 53 -5 0 -14 -7 -21 -14z"/>
<path d="M1530 1887 c0 -22 89 -117 109 -117 35 0 29 13 -31 69 -68 63 -78 69
-78 48z"/>
<path d="M831 1827 c-17 -25 -43 -54 -58 -65 -22 -17 -26 -23 -16 -33 11 -10
18 -9 40 7 38 29 88 113 75 126 -7 7 -20 -5 -41 -35z"/>
<path d="M1490 1857 c0 -18 69 -117 86 -124 9 -3 20 -1 26 5 8 8 5 17 -13 31
-14 11 -38 38 -53 60 -29 41 -46 52 -46 28z"/>
<path d="M857 1773 c-37 -50 -45 -68 -35 -74 20 -13 27 -11 40 11 21 33 38 26
25 -10 -14 -37 -3 -49 23 -25 22 20 53 106 48 132 -4 14 -8 11 -24 -14 -20
-34 -41 -46 -30 -17 13 35 18 64 10 63 -5 0 -31 -30 -57 -66z"/>
<path d="M1455 1813 c13 -57 73 -128 91 -110 8 8 -76 137 -88 137 -6 0 -7 -12
-3 -27z"/>
<path d="M1984 1829 c-10 -17 13 -36 27 -22 12 12 4 33 -11 33 -5 0 -12 -5
-16 -11z"/>
<path d="M1405 1783 c14 -78 62 -140 89 -113 6 6 3 17 -12 32 -11 13 -30 45
-42 71 -25 57 -45 63 -35 10z"/>
<path d="M981 1758 c-7 -24 -22 -58 -32 -77 -23 -38 -20 -46 14 -37 25 6 43
51 49 120 4 45 -17 41 -31 -6z"/>
<path d="M1374 1724 c7 -64 25 -91 52 -80 15 6 15 8 2 24 -8 9 -20 36 -27 59
-19 68 -35 66 -27 -3z"/>
<path d="M1025 1723 c-10 -57 -15 -73 -26 -73 -5 0 -9 -7 -9 -15 0 -19 34 -20
49 -1 13 16 13 126 0 126 -5 0 -11 -17 -14 -37z"/>
<path d="M1926 1718 c4 -24 8 -44 9 -46 1 -1 14 2 29 7 20 8 26 17 26 42 0 23
-4 30 -15 26 -8 -4 -17 -2 -20 3 -4 6 -13 10 -21 10 -11 0 -13 -9 -8 -42z"/>
<path d="M1760 1719 c0 -5 5 -7 10 -4 6 3 10 8 10 11 0 2 -4 4 -10 4 -5 0 -10
-5 -10 -11z"/>
<path d="M1712 1698 c-7 -7 -12 -20 -12 -30 0 -10 -5 -18 -10 -18 -6 0 -22
-11 -36 -25 -21 -21 -42 -27 -154 -42 -93 -12 -130 -20 -130 -30 0 -21 -28
-15 -41 9 l-12 22 -8 -22 c-6 -15 -17 -22 -33 -22 -14 0 -28 -4 -31 -10 -3 -5
-15 -10 -26 -10 -18 0 -20 -5 -15 -37 3 -21 5 -44 6 -51 0 -9 10 -12 28 -10
23 3 27 8 28 38 2 53 3 60 13 60 5 0 7 -9 4 -20 -3 -11 0 -20 6 -20 6 0 11 10
12 23 l0 22 12 -23 c8 -18 8 -25 -2 -32 -17 -10 -4 -33 14 -26 19 7 37 -15 25
-30 -16 -19 67 -56 93 -42 20 10 19 12 -11 37 -35 28 -43 48 -14 32 15 -8 17
-5 16 22 -1 21 -7 33 -17 35 -10 2 -17 8 -17 13 0 11 46 -9 90 -39 74 -53 99
-95 64 -109 -13 -5 -13 -7 -2 -14 10 -7 9 -9 -4 -9 -11 0 -18 8 -18 20 0 27
-24 35 -50 17 -21 -14 -21 -16 -3 -26 17 -10 17 -12 1 -25 -10 -7 -18 -19 -18
-25 0 -7 8 -11 18 -9 9 1 23 -1 30 -5 7 -5 12 -3 12 5 1 22 40 -33 40 -56 0
-31 16 -50 34 -43 9 4 16 11 16 16 0 6 -7 8 -15 5 -10 -4 -15 0 -15 14 0 11 7
25 15 32 8 7 15 19 15 26 0 29 19 12 27 -23 26 -134 -13 -253 -117 -352 -33
-32 -60 -60 -60 -63 0 -10 38 -16 47 -8 4 4 69 15 143 24 500 63 587 79 661
117 61 31 116 89 124 132 21 108 -46 186 -174 203 -58 7 -66 19 -20 29 17 4
51 26 75 49 41 39 44 46 44 93 0 93 -56 145 -176 162 -66 10 -258 -6 -464 -38
-60 -10 -76 -5 -46 13 36 22 65 56 60 71 -7 18 -7 18 -22 3z m-322 -207 c0
-12 -20 -25 -27 -18 -7 7 6 27 18 27 5 0 9 -4 9 -9z m619 -17 c53 -67 4 -110
-146 -128 l-52 -7 -5 36 c-4 19 -8 50 -11 69 l-6 34 53 10 c29 5 74 10 100 11
39 1 50 -3 67 -25z m-599 -74 c0 -5 -4 -10 -9 -10 -6 0 -13 5 -16 10 -3 6 1
10 9 10 9 0 16 -4 16 -10z m206 -72 c4 -6 -3 -19 -16 -30 -28 -23 -43 -23 -38
0 2 9 10 16 16 15 7 -2 11 0 11 5 -4 24 14 31 27 10z m423 -123 c46 -23 55
-74 21 -118 -20 -25 -54 -36 -167 -51 l-41 -6 -6 38 c-3 20 -8 58 -12 84 l-6
46 48 7 c27 4 54 8 59 10 25 9 79 4 104 -10z"/>
<path d="M1820 1434 c0 -14 3 -14 15 -4 8 7 15 14 15 16 0 2 -7 4 -15 4 -8 0
-15 -7 -15 -16z"/>
<path d="M584 1635 c15 -14 32 -25 39 -25 6 0 0 11 -15 25 -15 14 -32 25 -39
25 -7 0 0 -11 15 -25z"/>
<path d="M1173 1645 c-3 -9 -3 -36 0 -60 4 -42 3 -45 -19 -45 -15 0 -24 6 -24
15 0 8 -4 15 -10 15 -5 0 -10 -8 -10 -19 0 -11 -12 -23 -31 -31 -27 -12 -30
-16 -27 -54 3 -41 3 -41 -33 -42 -50 -2 -59 6 -62 54 -1 32 -6 41 -17 37 -8
-2 -71 -11 -140 -19 -69 -8 -146 -18 -171 -22 -55 -8 -75 9 -41 36 12 10 17
22 12 29 -5 10 -9 10 -15 2 -3 -7 -15 -9 -26 -6 -26 9 -48 -15 -38 -40 12 -31
11 -33 -18 -37 -25 -3 -28 -6 -25 -38 6 -83 12 -100 35 -100 52 -1 60 -22 87
-224 24 -184 22 -207 -25 -228 -25 -11 -25 -14 -19 -72 4 -34 8 -63 10 -64 3
-4 398 44 447 54 22 5 27 11 27 36 0 25 -11 41 -60 85 -33 30 -63 67 -66 81
-4 15 -12 34 -19 42 -17 19 -35 86 -35 127 0 24 5 33 22 39 19 6 19 7 5 16
-10 5 -17 16 -17 25 0 13 5 12 25 -7 22 -21 23 -24 8 -35 -10 -7 -14 -19 -10
-29 7 -17 37 -23 37 -6 0 6 7 10 15 10 13 0 13 -3 3 -21 -9 -13 -20 -19 -36
-16 -19 4 -22 1 -20 -17 2 -13 12 -22 26 -24 12 -2 22 -8 22 -14 0 -5 -7 -8
-15 -4 -9 3 -15 0 -15 -8 0 -8 14 -19 30 -25 30 -10 38 -25 20 -36 -18 -11
-10 -25 14 -25 26 0 47 -21 28 -28 -17 -5 -15 -22 2 -22 25 0 25 27 0 63 -34
51 -30 69 7 24 28 -34 69 -50 69 -28 0 5 9 13 20 16 11 3 20 11 20 16 0 6 -4
8 -9 5 -9 -6 -61 15 -61 26 0 3 -8 4 -19 1 -23 -6 -38 14 -22 30 13 13 15 28
4 26 -27 -4 -43 3 -43 20 0 11 4 22 9 25 5 3 7 15 4 26 -4 14 0 20 11 20 21 0
21 16 -1 29 -14 8 -15 12 -4 25 7 9 21 16 30 17 10 0 11 2 4 6 -7 2 -13 18
-13 33 0 37 -19 49 -37 24 -15 -20 -73 -27 -73 -9 0 23 52 86 67 81 8 -3 17
-6 19 -6 2 0 4 -9 4 -20 0 -28 12 -25 54 16 50 49 60 34 11 -16 -32 -33 -36
-40 -22 -46 9 -3 24 -3 33 0 13 5 14 9 4 21 -18 21 -3 35 37 35 30 0 34 2 23
15 -15 18 -5 35 21 35 10 0 19 7 19 15 0 8 5 15 10 15 6 0 8 11 4 25 -4 16 -2
25 6 25 6 0 8 5 4 12 -5 8 -2 9 10 5 36 -14 56 10 56 68 l0 55 -40 0 c-27 0
-43 -5 -47 -15z m-13 -160 c0 -28 -15 -34 -24 -9 -10 25 -7 34 9 34 9 0 15 -9
15 -25z m-64 1 c18 -18 18 -26 0 -26 -17 0 -38 24 -29 33 9 10 13 9 29 -7z
m-175 -203 c12 -15 12 -16 -3 -10 -10 3 -18 2 -18 -3 0 -6 -6 -10 -14 -10 -9
0 -12 7 -9 20 6 24 26 26 44 3z m45 -69 c-3 -9 -10 -13 -15 -10 -5 4 -4 19 2
37 11 28 12 29 15 10 2 -13 1 -29 -2 -37z m-36 -104 c0 -5 -4 -10 -10 -10 -5
0 -10 5 -10 10 0 6 5 10 10 10 6 0 10 -4 10 -10z m130 -90 c0 -5 -5 -10 -11
-10 -5 0 -7 5 -4 10 3 6 8 10 11 10 2 0 4 -4 4 -10z"/>
<path d="M720 1530 c0 -5 5 -10 10 -10 6 0 10 5 10 10 0 6 -4 10 -10 10 -5 0
-10 -4 -10 -10z"/>
<path d="M1450 1464 c0 -8 5 -12 10 -9 6 3 10 10 10 16 0 5 -4 9 -10 9 -5 0
-10 -7 -10 -16z"/>
<path d="M1020 1450 c0 -5 5 -10 11 -10 5 0 7 5 4 10 -3 6 -8 10 -11 10 -2 0
-4 -4 -4 -10z"/>
<path d="M1468 1436 c-13 -10 -15 -15 -6 -24 20 -20 38 -13 38 13 0 28 -7 30
-32 11z"/>
<path d="M1165 1424 c-18 -14 -18 -14 2 -14 23 0 39 15 26 23 -5 3 -17 -1 -28
-9z"/>
<path d="M1283 1426 c5 -15 37 -20 49 -8 6 6 -1 11 -22 14 -19 3 -29 1 -27 -6z"/>
<path d="M1520 1419 c0 -8 7 -23 15 -33 15 -19 15 -19 15 1 0 11 -7 26 -15 33
-12 10 -15 10 -15 -1z"/>
<path d="M1179 1340 c-38 -43 -66 -67 -73 -63 -15 10 9 -13 64 -60 l44 -37
-21 -21 c-20 -21 -21 -21 -40 -3 -11 11 -33 29 -48 42 l-29 22 -26 -26 c-25
-25 -25 -25 -5 -41 14 -10 16 -17 8 -20 -39 -14 12 -58 54 -47 14 4 30 -7 56
-35 20 -23 39 -41 42 -41 3 0 3 12 1 28 -4 20 3 36 24 62 l29 35 22 -22 23
-23 -24 -25 c-17 -18 -27 -22 -36 -14 -10 8 -12 3 -10 -23 2 -18 6 -41 11 -50
9 -23 41 -23 49 -2 4 9 9 14 12 11 10 -10 -21 -47 -40 -47 -11 0 -27 -7 -37
-16 -16 -14 -18 -14 -24 5 -3 12 -15 21 -25 21 -10 0 -21 7 -24 16 -5 13 -1
15 19 10 14 -4 25 -5 25 -2 0 11 -80 86 -91 86 -7 0 -4 -7 9 -16 24 -17 32
-76 10 -72 -7 2 -12 -3 -10 -10 1 -8 -2 -11 -8 -7 -6 4 -9 13 -6 21 7 18 -10
18 -21 1 -4 -8 -16 -16 -25 -20 -24 -9 -23 -28 2 -34 20 -5 24 -13 20 -47 -1
-15 2 -17 17 -11 10 4 27 9 38 12 18 4 18 3 4 -9 -13 -10 -14 -17 -5 -33 6
-11 12 -22 13 -24 1 -2 15 10 32 26 26 26 27 31 12 41 -9 6 -11 11 -5 11 21 2
48 -40 46 -70 -1 -16 3 -29 9 -29 6 0 8 -9 4 -22 -6 -22 -6 -22 9 -4 18 23 20
36 6 36 -5 0 -10 5 -10 10 0 6 9 10 20 10 11 0 20 -1 20 -3 0 -1 -4 -17 -9
-35 -5 -17 -6 -32 -2 -32 11 0 35 28 37 44 4 21 31 66 37 60 3 -4 -1 -17 -9
-29 -14 -22 -14 -23 5 -18 12 3 21 12 21 20 0 8 4 12 9 9 5 -4 11 0 14 6 3 10
7 10 20 -1 15 -12 21 -9 18 11 0 3 22 23 49 44 48 37 61 54 40 54 -5 0 -14 -9
-20 -20 -6 -11 -15 -18 -21 -15 -5 4 -5 14 2 27 7 12 9 41 6 70 -4 30 -2 46 4
43 5 -4 6 -12 2 -18 -4 -7 0 -6 10 2 9 7 17 19 17 27 0 7 5 16 12 20 11 7 9
-10 -6 -47 -5 -12 0 -14 29 -11 37 4 59 22 27 22 -10 0 -21 3 -25 6 -7 7 17
34 30 34 4 0 17 8 28 17 19 15 19 15 -13 9 -33 -6 -33 -5 -27 23 7 33 -8 49
-30 31 -11 -9 -18 -10 -29 -1 -20 17 -30 -28 -11 -49 29 -32 7 -57 -24 -27
-11 10 -13 9 -7 -1 11 -19 -4 -56 -17 -43 -6 6 -15 11 -19 11 -13 0 -9 -20 7
-36 17 -18 20 -34 5 -34 -5 0 -10 4 -10 9 0 17 -35 17 -50 0 -11 -13 -21 -15
-37 -9 -30 12 -29 18 12 65 19 22 35 42 35 45 0 3 -18 21 -40 40 -44 38 -47
47 -26 76 14 18 16 17 60 -26 l46 -44 26 25 25 25 -81 73 c-44 40 -79 69 -78
64 2 -4 -14 -30 -36 -56 l-38 -47 -23 22 -23 22 41 48 c39 47 40 48 22 68 -10
11 -22 20 -26 20 -4 0 -35 -32 -70 -70z m243 -372 c-9 -9 -12 -7 -12 12 0 19
3 21 12 12 9 -9 9 -15 0 -24z m-251 -34 c12 -14 11 -16 -5 -13 -11 2 -21 10
-24 17 -5 17 13 15 29 -4z m-21 -24 c12 -8 11 -10 -7 -10 -13 0 -23 5 -23 10
0 13 11 13 30 0z m110 -56 c0 -8 -5 -12 -10 -9 -6 4 -8 11 -5 16 9 14 15 11
15 -7z"/>
<path d="M943 1375 c-7 -8 -13 -22 -13 -32 1 -15 3 -15 20 6 30 35 22 60 -7
26z"/>
<path d="M1085 1370 c-3 -5 1 -10 10 -10 9 0 13 5 10 10 -3 6 -8 10 -10 10 -2
0 -7 -4 -10 -10z"/>
<path d="M1435 1340 c3 -5 10 -10 16 -10 5 0 9 5 9 10 0 6 -7 10 -16 10 -8 0
-12 -4 -9 -10z"/>
<path d="M1100 1320 c-8 -5 -12 -12 -9 -15 4 -3 12 1 19 10 14 17 11 19 -10 5z"/>
<path d="M1035 1310 c-3 -5 -1 -10 4 -10 6 0 11 5 11 10 0 6 -2 10 -4 10 -3 0
-8 -4 -11 -10z"/>
<path d="M1285 1310 c3 -5 8 -10 11 -10 2 0 4 5 4 10 0 6 -5 10 -11 10 -5 0
-7 -4 -4 -10z"/>
<path d="M1400 1300 c0 -5 5 -10 10 -10 6 0 10 5 10 10 0 6 -4 10 -10 10 -5 0
-10 -4 -10 -10z"/>
<path d="M1491 1249 c-13 -11 -21 -23 -17 -26 4 -4 11 -1 16 7 7 12 12 12 21
3 9 -9 9 -16 -1 -28 -10 -13 -9 -15 7 -15 29 0 32 7 20 46 -12 39 -14 40 -46
13z"/>
<path d="M1080 1240 c0 -5 10 -10 23 -10 18 0 19 2 7 10 -19 13 -30 13 -30 0z"/>
<path d="M1600 1239 c0 -5 5 -7 10 -4 6 3 10 8 10 11 0 2 -4 4 -10 4 -5 0 -10
-5 -10 -11z"/>
<path d="M1606 1174 c-8 -22 -7 -34 3 -34 12 0 21 39 11 45 -4 3 -11 -2 -14
-11z"/>
<path d="M997 1143 c-4 -3 -7 -11 -7 -17 0 -6 5 -5 12 2 6 6 9 14 7 17 -3 3
-9 2 -12 -2z"/>
<path d="M1420 1100 c0 -5 5 -10 11 -10 5 0 7 5 4 10 -3 6 -8 10 -11 10 -2 0
-4 -4 -4 -10z"/>
<path d="M925 1020 c3 -5 8 -10 11 -10 2 0 4 5 4 10 0 6 -5 10 -11 10 -5 0 -7
-4 -4 -10z"/>
<path d="M1504 995 c-8 -21 -1 -27 26 -23 l21 3 -21 18 c-18 15 -21 15 -26 2z"/>
<path d="M1548 1003 c7 -3 16 -2 19 1 4 3 -2 6 -13 5 -11 0 -14 -3 -6 -6z"/>
<path d="M1020 905 c7 -8 20 -15 29 -15 13 1 13 3 -3 15 -26 19 -42 19 -26 0z"/>
<path d="M1521 807 c2 -1 13 -9 24 -17 19 -14 19 -14 6 3 -7 9 -18 17 -24 17
-6 0 -8 -1 -6 -3z"/>
<path d="M1200 732 c0 -5 7 -13 16 -16 10 -4 14 -1 12 6 -5 15 -28 23 -28 10z"/>
<path d="M1008 564 l5 -27 18 24 19 24 0 -22 c0 -20 5 -23 44 -23 37 0 44 3
41 18 -2 9 -4 20 -4 25 -1 4 -30 7 -65 7 -63 0 -63 0 -58 -26z m102 -5 c0 -5
-4 -9 -10 -9 -5 0 -10 7 -10 16 0 8 5 12 10 9 6 -3 10 -10 10 -16z"/>
<path d="M1170 563 c0 -31 35 -31 45 0 l8 22 4 -22 c5 -27 33 -31 33 -5 1 15
2 15 10 1 13 -22 54 -17 58 7 2 17 -4 19 -78 20 -77 0 -80 -1 -80 -23z"/>
<path d="M1368 565 c-6 -29 -2 -31 18 -11 18 18 18 36 0 36 -7 0 -16 -11 -18
-25z"/>
<path d="M1411 568 c-1 -28 -1 -28 64 -27 62 1 65 2 65 25 0 26 -10 30 -28 12
-9 -9 -12 -9 -12 0 0 7 -4 12 -10 12 -5 0 -10 -9 -10 -20 0 -27 -28 -25 -33 3
l-4 22 -2 -22 c0 -13 -5 -23 -10 -23 -5 0 -12 10 -14 23 -4 19 -4 18 -6 -5z"/>
<path d="M1570 564 c0 -19 4 -25 18 -22 19 4 24 29 7 40 -18 13 -25 9 -25 -18z"/>
<path d="M1625 572 c3 -7 5 -18 5 -23 0 -20 18 -8 22 15 4 19 1 24 -14 23 -11
-1 -16 -7 -13 -15z"/>
<path d="M734 486 c-12 -31 1 -51 34 -54 31 -3 32 -2 26 25 -4 15 -9 31 -11
36 -7 13 -43 8 -49 -7z m36 -27 c0 -11 -4 -17 -10 -14 -5 3 -10 13 -10 21 0 8
5 14 10 14 6 0 10 -9 10 -21z"/>
<path d="M805 473 c2 -16 4 -32 4 -36 1 -5 13 -7 28 -5 22 2 29 9 33 33 4 24
7 26 12 13 4 -10 5 -25 2 -33 -5 -13 5 -15 60 -14 66 2 66 2 66 30 0 21 4 27
15 23 8 -4 15 -17 15 -30 0 -14 6 -24 14 -24 9 0 12 8 9 24 -4 17 0 25 16 29
18 4 21 1 21 -24 0 -28 1 -29 50 -29 43 0 50 3 50 19 0 11 2 26 5 33 4 10 -4
14 -30 15 -33 1 -35 -1 -35 -30 0 -24 -3 -28 -10 -17 -5 8 -7 23 -4 33 5 15
-3 17 -65 17 -49 0 -71 -4 -71 -12 0 -9 -3 -9 -12 0 -21 21 -39 14 -32 -13 4
-15 2 -25 -5 -25 -6 0 -11 11 -11 25 0 23 -4 25 -44 25 -43 0 -45 -1 -49 -32
l-4 -33 -1 33 c-1 20 -7 32 -16 32 -10 0 -13 -9 -11 -27z"/>
<path d="M1250 490 c0 -5 5 -10 11 -10 7 0 9 -10 7 -25 -4 -19 -1 -25 12 -25
13 0 16 6 12 25 -3 19 0 25 12 25 10 0 14 5 11 10 -3 6 -19 10 -36 10 -16 0
-29 -4 -29 -10z"/>
<path d="M1323 465 l-11 -35 59 0 c51 0 58 2 53 18 -5 16 -5 16 6 0 13 -21 66
-24 73 -5 4 10 6 10 6 0 1 -17 61 -17 61 -1 0 9 3 9 12 0 19 -19 26 -14 30 21
3 31 2 33 -28 34 -29 1 -32 -2 -31 -24 3 -37 -20 -40 -28 -4 -8 39 -30 40 -44
1 -10 -30 -30 -41 -32 -17 -1 6 -2 19 -3 27 0 8 -13 16 -27 18 -24 3 -25 0
-21 -29 3 -23 1 -30 -9 -27 -7 2 -16 15 -19 29 -9 38 -35 35 -47 -6z"/>
<path d="M1630 490 c0 -5 5 -10 11 -10 7 0 9 -10 7 -25 -4 -19 -1 -25 12 -25
13 0 16 6 12 25 -3 18 0 25 12 25 9 0 16 5 16 10 0 6 -16 10 -35 10 -19 0 -35
-4 -35 -10z"/>
<path d="M1710 466 l0 -36 50 0 c43 0 50 3 50 19 0 11 3 26 6 35 4 10 1 16 -9
16 -8 0 -18 -6 -20 -12 -4 -10 -6 -10 -6 0 -1 6 -8 12 -16 12 -10 0 -15 -10
-15 -30 0 -16 -5 -30 -11 -30 -6 0 -9 12 -7 27 2 15 -2 28 -9 30 -9 3 -13 -7
-13 -31z"/>
<path d="M1837 494 c-4 -4 -7 -20 -7 -36 0 -26 3 -29 28 -26 23 3 27 8 27 33
0 23 -5 31 -20 33 -12 2 -24 0 -28 -4z m26 -17 c3 -8 1 -20 -4 -28 -6 -10 -9
-7 -9 14 0 29 5 35 13 14z"/>
</g>
</svg>
